<svg width="500" height="500" viewBox="0 0 500 500" fill="none" xmlns="http://www.w3.org/2000/svg">
<g clip-path="url(#clip0)">
<path d="M500 250C500.045 283.842 493.194 317.339 479.867 348.447L479.038 350.355C456.495 401.641 417.404 443.887 368.018 470.336C318.632 496.785 261.803 505.909 206.62 496.25C205.118 495.984 203.619 495.708 202.123 495.422C186.659 492.424 171.517 487.958 156.901 482.086C154.527 481.132 152.17 480.143 149.83 479.12C148.232 478.425 146.635 477.707 145.052 476.967C101.752 456.899 65.0926 424.871 39.393 384.658C13.6934 344.445 0.0254191 297.724 0 250C0 111.93 111.93 0 250 0C388.07 0 500 111.93 500 250Z" fill="#0053D0"/>
<path opacity="0.2" d="M206.62 496.25C205.118 495.984 203.619 495.708 202.123 495.422C201.146 467.086 197.796 408.928 186.368 348.018C180.118 314.682 171.442 280.51 159.408 249.963C155.285 239.393 150.577 229.062 145.303 219.016C133.144 196.05 118.395 176.716 100.51 163.617L103.144 160.022C118.018 170.925 131.386 186.23 143.247 205.939C146.805 211.842 150.222 218.139 153.499 224.83C157.012 231.99 160.362 239.591 163.55 247.633C165.584 252.751 167.549 258.047 169.445 263.521C177.7 287.286 184.717 314.401 190.496 344.867C191.775 351.598 192.993 358.494 194.149 365.555C203.107 420.266 205.806 470.851 206.62 496.25Z" fill="black"/>
<path opacity="0.2" d="M149.83 479.12C148.232 478.425 146.635 477.707 145.052 476.967C143.506 460.177 140.666 439.349 135.473 419.578C133.199 410.699 130.28 401.997 126.738 393.543C120.814 379.675 113.143 367.885 103.225 360.614L105.858 357.027C116.243 364.63 124.253 376.649 130.444 390.71C137.419 406.553 142.071 424.993 145.17 442.611C147.47 455.695 148.92 468.336 149.83 479.12Z" fill="black"/>
<path opacity="0.2" d="M75.6374 163.514C87.9284 163.514 97.8922 153.55 97.8922 141.259C97.8922 128.968 87.9284 119.004 75.6374 119.004C63.3463 119.004 53.3825 128.968 53.3825 141.259C53.3825 153.55 63.3463 163.514 75.6374 163.514Z" fill="black"/>
<path opacity="0.2" d="M82.8043 355.088C95.0953 355.088 105.059 345.124 105.059 332.833C105.059 320.542 95.0953 310.579 82.8043 310.579C70.5133 310.579 60.5494 320.542 60.5494 332.833C60.5494 345.124 70.5133 355.088 82.8043 355.088Z" fill="black"/>
<path opacity="0.2" d="M163.99 178.64C159.271 205.265 169.689 229.374 169.689 229.374C169.689 229.374 187.758 210.315 192.477 183.689C197.197 157.064 186.779 132.955 186.779 132.955C186.779 132.955 168.709 152.015 163.99 178.64Z" fill="black"/>
<path opacity="0.2" d="M90.0279 241.843C115.424 251.129 140.943 245.169 140.943 245.169C140.943 245.169 125.287 224.154 99.8915 214.868C74.4959 205.582 48.9768 211.541 48.9768 211.541C48.9768 211.541 64.6322 232.556 90.0279 241.843Z" fill="black"/>
<path opacity="0.2" d="M85.7214 411.489C103.522 417.998 121.434 413.752 121.434 413.752C121.434 413.752 110.486 398.953 92.6855 392.444C74.8852 385.935 56.9731 390.181 56.9731 390.181C56.9731 390.181 67.9211 404.98 85.7214 411.489Z" fill="black"/>
<path d="M249.487 305.362C303.314 305.362 346.95 261.726 346.95 207.899C346.95 154.071 303.314 110.435 249.487 110.435C195.659 110.435 152.024 154.071 152.024 207.899C152.024 261.726 195.659 305.362 249.487 305.362Z" fill="#D0CDE1"/>
<path d="M211.415 282.519C211.415 282.519 223.598 340.387 223.598 346.479C223.598 352.57 281.467 379.982 281.467 379.982L333.244 370.845L351.518 316.022C351.518 316.022 321.061 270.336 321.061 252.062L211.415 282.519Z" fill="#D0CDE1"/>
<path d="M479.867 348.447L479.038 350.355C456.495 401.641 417.404 443.887 368.018 470.336C318.632 496.785 261.803 505.909 206.62 496.25C205.118 495.984 203.619 495.708 202.123 495.422C186.659 492.424 171.517 487.958 156.901 482.086C154.527 481.132 152.17 480.143 149.83 479.12C148.232 478.425 146.635 477.707 145.052 476.967C130.705 470.321 117.021 462.326 104.186 453.092L92.6331 419.578L99.1272 414.623L112.485 404.423L126.738 393.543L130.444 390.71L186.368 348.018L190.496 344.867L219.564 322.678L219.571 322.67C219.571 322.67 251.006 373.891 296.694 358.661C342.382 343.432 341.383 299.763 341.383 299.763L479.867 348.447Z" fill="#2F2E41"/>
<path d="M164.967 129.376C164.967 129.376 195.911 62.33 255.221 77.8021C314.531 93.2741 348.053 116.482 350.632 139.69C353.211 162.899 349.343 197.711 349.343 197.711C349.343 197.711 342.896 150.005 301.637 160.32C260.378 170.635 195.911 162.899 195.911 162.899L185.596 255.731C185.596 255.731 173.992 238.97 161.099 249.284C148.206 259.599 123.708 150.005 164.967 129.376Z" fill="#2F2E41"/>
<path d="M156.901 482.086C154.527 481.132 152.17 480.143 149.83 479.12C148.232 478.425 146.635 477.707 145.052 476.967C121.323 465.964 99.4635 451.315 80.2663 433.55C87.0636 424.29 92.6331 419.578 92.6331 419.578H138.321L145.17 442.611L156.901 482.086Z" fill="#2F2E41"/>
<path d="M439.845 343.432L479.038 350.355C468.55 374.249 454.384 396.354 437.056 415.865L439.845 343.432Z" fill="#2F2E41"/>
</g>
<defs>
<clipPath id="clip0">
<rect width="500" height="500" fill="white"/>
</clipPath>
</defs>
</svg>
