<svg width="101" height="233" viewBox="0 0 101 233" fill="none" xmlns="http://www.w3.org/2000/svg">
<path d="M101 180.377V17.9337L85.41 12.3463L77.4411 9.48975V90.6367L35.3679 75.5546L23.5873 71.3326L23.5589 71.3233V9.82294L16.5435 12.3417H16.5388L16.5293 12.3463L0 18.2669V87.568L23.5589 96.0143L23.5873 96.0236L35.3679 100.246L77.4411 115.325V147.232L23.5589 127.919V108.342L0 99.9007V196.798L23.5589 205.242L77.4411 224.553L101 233V192.719L77.4411 184.275V199.865L23.5589 180.551V152.61L77.4411 171.921V171.93L101 180.377Z" fill="#D0CDE1"/>
<path d="M0 233H66.5573L0 209.146V233Z" fill="#0053D0"/>
<path d="M65.5895 5.23784L50.9791 0L35.3679 5.59666V19.0943L65.5895 29.9288V5.23784Z" fill="#0053D0"/>
</svg>
