<svg width="39" height="90" viewBox="0 0 39 90" fill="none" xmlns="http://www.w3.org/2000/svg">
<path d="M39 69.6735V6.9273L32.9801 4.7691L29.903 3.6657V35.01L13.6569 29.1843L9.10795 27.5535L9.09698 27.5499V3.7944L6.38808 4.7673H6.38625L6.3826 4.7691L0 7.056V33.8247L9.09698 37.0872L9.10795 37.0908L13.6569 38.7216L29.903 44.5464V56.871L9.09698 49.4109V41.8491L0 38.5884V76.0167L9.09698 79.2783L29.903 86.7375L39 90V74.4408L29.903 71.1792V77.2011L9.09698 69.741V58.9482L29.903 66.4074V66.411L39 69.6735Z" fill="#D0CDE1"/>
<path d="M0 90H25.7003L0 80.7858V90Z" fill="#0053D0"/>
<path d="M25.3267 2.0232L19.685 0L13.6569 2.1618V7.3755L25.3267 11.5605V2.0232Z" fill="#0053D0"/>
</svg>
