<svg width="683" height="574" viewBox="0 0 683 574" fill="none" xmlns="http://www.w3.org/2000/svg">
<path d="M682.713 136.278C678.208 136.27 673.766 137.331 669.75 139.374C665.735 141.417 662.261 144.383 659.614 148.03C657.128 151.446 654.574 154.662 651.951 157.677C647.14 163.523 640.564 167.651 633.209 169.442C630.323 126.162 609.978 104.526 572.176 104.535C541.742 104.535 516.753 114.232 497.21 133.627C485.325 145.38 475.248 158.831 467.309 173.542L465.943 174.088C452.155 179.709 439.98 182.515 429.416 182.506C427.64 182.587 425.862 182.426 424.129 182.028V181.536C424.129 130.266 403.639 104.626 362.659 104.617C332.535 104.617 307.546 114.314 287.693 133.709C267.95 152.898 253.112 176.557 244.432 202.689C235.471 229.308 230.986 253.508 230.977 275.289C230.977 277.284 231.018 279.238 231.1 281.151C226.119 292.712 220.472 301.977 214.161 308.946C204.854 319.212 192.52 326.901 177.157 332.012L224.721 108.88H204.34C190.522 108.881 177.122 113.623 166.377 122.314C155.632 131.006 148.193 143.122 145.301 156.639L121.875 266.079C118.032 277.94 112.923 287.478 106.548 294.693C100.173 301.908 92.8061 305.511 84.4461 305.502C74.8295 305.502 70.0212 298.451 70.0212 284.349C70.0121 280.301 70.4984 276.267 71.4691 272.338L106.015 108.88C86.4401 108.881 67.4592 115.609 52.2505 127.937C37.0418 140.265 26.5285 157.446 22.4707 176.603L4.09801 263.196C1.55725 276.032 0.286865 286.449 0.286865 294.447C0.286865 313.678 5.01323 328.103 14.4659 337.723C23.9187 347.343 36.3311 352.149 51.7031 352.14C61.758 352.114 71.7144 350.156 81.0311 346.373C90.6296 342.52 100.078 335.469 109.376 325.22L103.611 351.183C80.8444 358.544 62.1029 367.758 47.3865 378.827C32.6702 389.895 25.2983 404.558 25.271 422.814C25.271 437.872 30.3981 449.41 40.6522 457.426C50.9063 465.443 63.7239 469.447 79.1051 469.438C98.3542 469.659 117.133 463.488 132.502 451.892C148.202 440.195 159.257 418.787 165.668 387.668L172.867 353.055C191.496 348.228 208.658 338.906 222.849 325.903C227.996 321.202 232.579 315.919 236.509 310.162C239.611 318.875 244.831 326.68 251.699 332.872C265.423 345.08 284.142 351.183 307.855 351.183C327.407 351.183 345.512 345.262 362.168 333.419C378.824 321.576 392.424 304.723 402.97 282.86C413.543 261.069 420.113 235.589 422.681 206.419C434.151 204.576 445.433 201.713 456.394 197.865C455.875 199.341 455.37 200.83 454.878 202.333C446.218 228.752 441.892 253.03 441.901 275.166C441.901 301.448 448.79 320.679 462.569 332.859C476.347 345.039 495.102 351.147 518.834 351.183C538.791 351.258 558.216 344.75 574.103 332.667C590.759 320.342 604.296 302.796 614.714 280.031C625.132 257.266 631.297 230.824 633.209 200.707C643.75 194.936 652.8 186.786 659.641 176.903C666.371 167.129 674.062 153.587 682.713 136.278ZM95.9205 389.157C93.0428 402.931 89.0404 413.503 83.9134 420.873C78.7863 428.243 73.4999 431.933 68.0541 431.942C62.918 431.942 58.911 430.338 56.0333 427.132C53.2285 424.137 51.6787 420.18 51.7031 416.077C51.7031 400.372 67.403 386.752 98.8028 375.219L95.9205 389.157ZM382.781 207.909C380.529 225.232 376.336 242.247 370.282 258.632C364.517 273.855 357.787 285.875 350.092 294.693C342.397 303.512 334.706 307.916 327.02 307.907C317.732 307.907 311.325 305.265 307.801 299.981C304.277 294.698 302.514 284.363 302.514 268.976C302.514 252.579 305.561 233.667 311.653 212.24C317.745 190.814 325.755 172.385 335.681 156.953C345.634 141.594 355.902 133.914 366.484 133.914C372.859 133.914 377.348 135.918 379.953 139.927C382.557 143.935 384.156 151.223 384.748 161.79C374.812 165.963 369.849 174.617 369.858 187.753C369.858 199.232 374.184 205.95 382.835 207.909H382.781ZM592.311 207.909C588.459 236.149 581.411 259.866 571.166 279.061C560.921 298.255 549.865 307.871 537.999 307.907C528.71 307.907 522.304 305.265 518.78 299.981C515.255 294.698 513.534 284.363 513.616 268.976C513.616 252.579 516.58 233.585 522.509 211.994C528.437 190.404 536.205 171.98 545.813 156.721C555.384 141.516 565.456 133.914 576.029 133.914C582.112 133.914 586.515 135.918 589.238 139.927C591.961 143.935 593.645 151.068 594.292 161.326C585.322 165.489 580.832 173.82 580.823 186.318C580.823 197.842 584.671 205.039 592.366 207.909H592.311Z" fill="#0053D0"/>
<path d="M628.21 276.533C627.117 279.266 625.96 281.962 624.74 284.622C619.358 296.596 612.561 307.881 604.496 318.238C589.005 449.651 476.966 551.904 341.5 551.904C303.345 551.911 265.641 543.654 230.979 527.702C196.316 511.749 165.517 488.479 140.698 459.49L139.072 460.733C133.611 464.828 127.748 468.358 121.574 471.269C126.983 477.7 132.689 483.922 138.69 489.935C178.814 530.06 229.93 557.382 285.577 568.447C341.223 579.511 398.899 573.82 451.312 552.094C503.726 530.368 548.521 493.582 580.036 446.389C611.55 399.195 628.367 343.713 628.36 286.959C628.36 283.488 628.31 280.013 628.21 276.533ZM156.27 97.8393C206.182 48.8349 273.469 21.6087 343.403 22.1209C413.336 22.6331 480.218 50.842 529.407 100.572C537.502 97.707 545.883 95.7277 554.405 94.6691C551.154 91.089 547.807 87.5726 544.365 84.12C515.836 55.6127 481.625 33.4369 443.958 19.037C406.292 4.6371 366.016 -1.66391 325.753 0.544397C285.49 2.7527 246.144 13.4208 210.277 31.8538C174.41 50.2868 142.827 76.0712 117.585 107.528L104.677 168.5C115.131 147.676 128.28 128.32 143.785 110.93C147.801 106.421 151.963 102.057 156.27 97.8393Z" fill="#D0CDE1"/>
</svg>
